<svg width="26" height="22" viewBox="0 0 26 22" fill="none" xmlns="http://www.w3.org/2000/svg">
<path d="M8.66732 1.1001C9.20898 1.1001 11.3757 6.0501 11.3757 6.6001C11.3757 7.7001 9.75065 8.8001 9.20898 9.9001C8.66732 11.0001 9.75065 12.1001 10.834 13.2001C11.2565 13.6291 13.0007 15.4001 14.084 14.8501C15.1673 14.3001 16.2507 12.6501 17.334 12.6501C17.8757 12.6501 22.7506 14.8501 22.7506 15.4001C22.7506 17.6001 21.1256 19.2501 19.5006 19.8001C17.8757 20.3501 16.7923 20.3501 14.6257 19.8001C12.459 19.2501 10.834 18.7001 8.12565 15.9501C5.41732 13.2001 4.87565 11.5501 4.33398 9.3501C3.79232 7.1501 3.79232 6.0501 4.33398 4.4001C4.87565 2.7501 6.50065 1.1001 8.66732 1.1001Z" stroke="black" stroke-width="2" stroke-linecap="round" stroke-linejoin="round"/>
</svg>
