<svg width="30" height="30" viewBox="0 0 30 30" fill="none" xmlns="http://www.w3.org/2000/svg">
<g clip-path="url(#clip0_130_7)">
<path d="M9.99892 11.2497C9.99892 13.5703 10.9208 15.7959 12.5617 17.4369C14.2027 19.0778 16.4283 19.9997 18.7489 19.9997M7.49892 26.4997C10.3467 28.3582 13.7821 29.0955 17.1417 28.5692C20.5013 28.0429 23.5467 26.2904 25.6897 23.6501C27.8327 21.0098 28.9213 17.669 28.7453 14.273C28.5692 10.877 27.141 7.66672 24.7364 5.26216C22.3319 2.8576 19.1216 1.42937 15.7256 1.25332C12.3296 1.07726 8.98882 2.16587 6.3485 4.30889C3.70819 6.45191 1.95565 9.4973 1.42937 12.8569C0.903096 16.2165 1.64041 19.6519 3.49892 22.4997L2.49892 27.4997L7.49892 26.4997Z" fill="#5FD568"/>
<path d="M9.99892 11.2497C9.99892 13.5703 10.9208 15.7959 12.5617 17.4369C14.2027 19.0778 16.4283 19.9997 18.7489 19.9997M7.49892 26.4997C10.3467 28.3582 13.7821 29.0955 17.1417 28.5692C20.5013 28.0429 23.5467 26.2904 25.6897 23.6501C27.8327 21.0098 28.9213 17.669 28.7453 14.273C28.5692 10.877 27.141 7.66672 24.7364 5.26216C22.3319 2.8576 19.1216 1.42937 15.7256 1.25332C12.3296 1.07726 8.98882 2.16587 6.3485 4.30889C3.70819 6.45191 1.95565 9.49731 1.42937 12.8569C0.903096 16.2165 1.64041 19.6519 3.49892 22.4997L2.49892 27.4997L7.49892 26.4997Z" stroke="white" stroke-width="2.38636" stroke-linecap="round" stroke-linejoin="round"/>
<path d="M18.748 19.9995C19.4384 19.9995 19.998 19.4399 19.998 18.7495C19.998 18.0592 19.4384 17.4995 18.748 17.4995C18.0577 17.4995 17.498 18.0592 17.498 18.7495C17.498 19.4399 18.0577 19.9995 18.748 19.9995Z" stroke="white" stroke-width="2.38636" stroke-linecap="round" stroke-linejoin="round"/>
<path d="M11.248 12.4995C11.9384 12.4995 12.498 11.9399 12.498 11.2495C12.498 10.5592 11.9384 9.99951 11.248 9.99951C10.5577 9.99951 9.99805 10.5592 9.99805 11.2495C9.99805 11.9399 10.5577 12.4995 11.248 12.4995Z" stroke="white" stroke-width="2.38636" stroke-linecap="round" stroke-linejoin="round"/>
</g>
<defs>
<clipPath id="clip0_130_7">
<rect width="30" height="30" fill="white"/>
</clipPath>
</defs>
</svg>
